<svg xmlns="http://www.w3.org/2000/svg" xmlns:xlink="http://www.w3.org/1999/xlink" width="500" zoomAndPan="magnify" viewBox="0 0 375 374.999991" height="500" preserveAspectRatio="xMidYMid meet" version="1.0"><defs><clipPath id="8fc7432ead"><path d="M 73 80.867188 L 192 80.867188 L 192 270 L 73 270 Z M 73 80.867188 " clip-rule="nonzero"/></clipPath><clipPath id="ae239622c0"><path d="M 50.742188 105 L 324.492188 105 L 324.492188 293.867188 L 50.742188 293.867188 Z M 50.742188 105 " clip-rule="nonzero"/></clipPath><clipPath id="ccd18391ed"><path d="M 183 80.867188 L 302 80.867188 L 302 270 L 183 270 Z M 183 80.867188 " clip-rule="nonzero"/></clipPath><clipPath id="0c9b283eb0"><path d="M 205.484375 111 L 257 111 L 257 163 L 205.484375 163 Z M 205.484375 111 " clip-rule="nonzero"/></clipPath></defs><rect x="-37.5" width="450" fill="#ffffff" y="-37.499999" height="449.999989" fill-opacity="1"/><rect x="-37.5" width="450" fill="#000000" y="-37.499999" height="449.999989" fill-opacity="1"/><g clip-path="url(#8fc7432ead)"><path fill="#ffffff" d="M 187.320312 269.03125 L 77.175781 269.03125 C 76.914062 269.03125 76.660156 269.007812 76.402344 268.957031 C 76.148438 268.90625 75.902344 268.832031 75.660156 268.730469 C 75.421875 268.632812 75.191406 268.511719 74.976562 268.367188 C 74.761719 268.222656 74.5625 268.058594 74.378906 267.875 C 74.191406 267.691406 74.027344 267.488281 73.886719 267.273438 C 73.742188 267.058594 73.617188 266.828125 73.519531 266.589844 C 73.417969 266.347656 73.34375 266.101562 73.292969 265.847656 C 73.242188 265.59375 73.21875 265.335938 73.21875 265.074219 L 73.21875 84.824219 C 73.21875 84.5625 73.242188 84.304688 73.292969 84.050781 C 73.34375 83.796875 73.417969 83.546875 73.519531 83.308594 C 73.617188 83.070312 73.742188 82.839844 73.886719 82.625 C 74.027344 82.410156 74.191406 82.207031 74.378906 82.023438 C 74.5625 81.839844 74.761719 81.675781 74.976562 81.53125 C 75.191406 81.386719 75.421875 81.265625 75.660156 81.167969 C 75.902344 81.066406 76.148438 80.992188 76.402344 80.941406 C 76.660156 80.890625 76.914062 80.867188 77.175781 80.867188 L 161.882812 80.867188 C 162.847656 80.867188 163.808594 80.914062 164.765625 81.011719 C 165.722656 81.105469 166.671875 81.246094 167.617188 81.4375 C 168.558594 81.625 169.492188 81.859375 170.414062 82.136719 C 171.332031 82.417969 172.238281 82.742188 173.128906 83.113281 C 174.015625 83.480469 174.886719 83.890625 175.734375 84.347656 C 176.582031 84.800781 177.40625 85.292969 178.207031 85.828125 C 179.007812 86.363281 179.777344 86.9375 180.523438 87.546875 C 181.265625 88.160156 181.976562 88.804688 182.65625 89.484375 C 183.339844 90.164062 183.984375 90.875 184.59375 91.621094 C 185.207031 92.363281 185.777344 93.136719 186.3125 93.9375 C 186.847656 94.738281 187.34375 95.5625 187.796875 96.410156 C 188.25 97.257812 188.660156 98.125 189.03125 99.015625 C 189.398438 99.902344 189.722656 100.808594 190.003906 101.730469 C 190.285156 102.648438 190.519531 103.582031 190.707031 104.527344 C 190.894531 105.46875 191.035156 106.421875 191.132812 107.378906 C 191.226562 108.335938 191.277344 109.296875 191.277344 110.257812 L 191.277344 265.074219 C 191.277344 265.335938 191.25 265.59375 191.199219 265.847656 C 191.148438 266.101562 191.074219 266.347656 190.976562 266.589844 C 190.875 266.828125 190.753906 267.058594 190.609375 267.273438 C 190.464844 267.488281 190.300781 267.691406 190.117188 267.875 C 189.933594 268.058594 189.734375 268.222656 189.519531 268.367188 C 189.300781 268.511719 189.074219 268.632812 188.832031 268.730469 C 188.59375 268.832031 188.347656 268.90625 188.089844 268.957031 C 187.835938 269.007812 187.578125 269.03125 187.320312 269.03125 Z M 81.132812 261.117188 L 183.363281 261.117188 L 183.363281 110.257812 C 183.359375 109.554688 183.324219 108.851562 183.253906 108.152344 C 183.1875 107.453125 183.082031 106.757812 182.945312 106.070312 C 182.808594 105.378906 182.636719 104.699219 182.429688 104.027344 C 182.226562 103.351562 181.988281 102.691406 181.71875 102.042969 C 181.449219 101.394531 181.148438 100.757812 180.816406 100.136719 C 180.488281 99.519531 180.125 98.917969 179.734375 98.332031 C 179.34375 97.746094 178.925781 97.183594 178.480469 96.640625 C 178.03125 96.097656 177.5625 95.574219 177.0625 95.078125 C 176.566406 94.582031 176.046875 94.109375 175.503906 93.664062 C 174.960938 93.21875 174.394531 92.796875 173.8125 92.40625 C 173.226562 92.015625 172.625 91.65625 172.003906 91.324219 C 171.382812 90.992188 170.75 90.691406 170.101562 90.421875 C 169.449219 90.152344 168.789062 89.914062 168.117188 89.710938 C 167.445312 89.507812 166.761719 89.335938 166.074219 89.199219 C 165.382812 89.058594 164.6875 88.957031 163.988281 88.886719 C 163.289062 88.816406 162.585938 88.78125 161.882812 88.78125 L 81.132812 88.78125 Z M 81.132812 261.117188 " fill-opacity="1" fill-rule="nonzero"/></g><path fill="#ffffff" d="M 186.957031 105.964844 C 187.199219 107.386719 187.320312 108.816406 187.320312 110.257812 L 187.320312 113.878906 L 187.457031 113.878906 L 187.457031 110.257812 C 187.457031 108.816406 187.578125 107.386719 187.820312 105.964844 Z M 186.957031 105.964844 " fill-opacity="1" fill-rule="nonzero"/><g clip-path="url(#ae239622c0)"><path fill="#ffffff" d="M 309.742188 105.964844 L 297.601562 105.964844 L 297.601562 113.878906 L 309.742188 113.878906 C 310.167969 113.882812 310.585938 113.921875 311.003906 114.007812 C 311.417969 114.089844 311.820312 114.210938 312.214844 114.375 C 312.605469 114.535156 312.976562 114.734375 313.332031 114.972656 C 313.683594 115.207031 314.007812 115.476562 314.308594 115.773438 C 314.609375 116.074219 314.875 116.402344 315.113281 116.753906 C 315.347656 117.105469 315.546875 117.480469 315.710938 117.871094 C 315.871094 118.261719 315.996094 118.667969 316.078125 119.082031 C 316.160156 119.496094 316.203125 119.917969 316.203125 120.34375 L 316.203125 279.75 C 316.203125 280.171875 316.160156 280.59375 316.078125 281.007812 C 315.996094 281.425781 315.871094 281.828125 315.710938 282.21875 C 315.546875 282.613281 315.347656 282.984375 315.113281 283.335938 C 314.875 283.6875 314.609375 284.015625 314.308594 284.316406 C 314.007812 284.617188 313.683594 284.882812 313.332031 285.117188 C 312.976562 285.355469 312.605469 285.554688 312.214844 285.714844 C 311.820312 285.878906 311.417969 286 311.003906 286.085938 C 310.585938 286.167969 310.167969 286.210938 309.742188 286.210938 L 65.25 286.210938 C 64.824219 286.210938 64.40625 286.167969 63.988281 286.085938 C 63.574219 286 63.171875 285.878906 62.777344 285.714844 C 62.386719 285.554688 62.015625 285.355469 61.660156 285.117188 C 61.308594 284.882812 60.984375 284.613281 60.683594 284.316406 C 60.382812 284.015625 60.113281 283.6875 59.878906 283.335938 C 59.644531 282.984375 59.445312 282.613281 59.28125 282.21875 C 59.121094 281.828125 58.996094 281.425781 58.914062 281.007812 C 58.832031 280.59375 58.789062 280.171875 58.789062 279.75 L 58.789062 120.34375 C 58.789062 119.917969 58.832031 119.496094 58.914062 119.082031 C 58.996094 118.667969 59.121094 118.261719 59.28125 117.871094 C 59.445312 117.480469 59.644531 117.105469 59.878906 116.753906 C 60.113281 116.402344 60.382812 116.074219 60.683594 115.773438 C 60.984375 115.476562 61.308594 115.207031 61.660156 114.972656 C 62.015625 114.734375 62.386719 114.535156 62.777344 114.375 C 63.171875 114.210938 63.574219 114.089844 63.988281 114.007812 C 64.40625 113.921875 64.824219 113.882812 65.25 113.878906 L 77.175781 113.878906 L 77.175781 105.964844 L 65.25 105.964844 C 64.304688 105.964844 63.371094 106.058594 62.445312 106.246094 C 61.519531 106.429688 60.621094 106.703125 59.75 107.0625 C 58.878906 107.425781 58.050781 107.871094 57.265625 108.394531 C 56.480469 108.917969 55.757812 109.515625 55.089844 110.179688 C 54.421875 110.847656 53.828125 111.574219 53.300781 112.359375 C 52.777344 113.144531 52.335938 113.972656 51.972656 114.84375 C 51.609375 115.714844 51.339844 116.613281 51.152344 117.539062 C 50.96875 118.464844 50.875 119.398438 50.875 120.34375 L 50.875 279.75 C 50.875 280.691406 50.96875 281.625 51.152344 282.550781 C 51.339844 283.476562 51.609375 284.375 51.972656 285.246094 C 52.335938 286.121094 52.777344 286.949219 53.300781 287.730469 C 53.828125 288.515625 54.421875 289.242188 55.089844 289.910156 C 55.757812 290.578125 56.484375 291.171875 57.265625 291.699219 C 58.050781 292.222656 58.878906 292.664062 59.75 293.027344 C 60.625 293.386719 61.523438 293.660156 62.449219 293.847656 C 63.371094 294.03125 64.308594 294.125 65.25 294.125 L 309.742188 294.125 C 310.6875 294.125 311.621094 294.03125 312.546875 293.847656 C 313.472656 293.660156 314.371094 293.386719 315.242188 293.027344 C 316.113281 292.664062 316.941406 292.222656 317.726562 291.699219 C 318.511719 291.171875 319.238281 290.578125 319.90625 289.910156 C 320.570312 289.242188 321.167969 288.515625 321.691406 287.730469 C 322.21875 286.949219 322.660156 286.121094 323.023438 285.246094 C 323.382812 284.375 323.65625 283.476562 323.839844 282.550781 C 324.027344 281.625 324.121094 280.691406 324.121094 279.75 L 324.121094 120.34375 C 324.121094 119.398438 324.027344 118.464844 323.839844 117.539062 C 323.65625 116.613281 323.382812 115.714844 323.023438 114.84375 C 322.660156 113.972656 322.214844 113.144531 321.691406 112.359375 C 321.167969 111.574219 320.570312 110.847656 319.902344 110.179688 C 319.238281 109.511719 318.511719 108.917969 317.726562 108.394531 C 316.941406 107.867188 316.113281 107.425781 315.242188 107.0625 C 314.371094 106.703125 313.472656 106.429688 312.546875 106.242188 C 311.621094 106.058594 310.6875 105.964844 309.742188 105.964844 Z M 309.742188 105.964844 " fill-opacity="1" fill-rule="nonzero"/></g><g clip-path="url(#ccd18391ed)"><path fill="#ffffff" d="M 297.601562 269.03125 L 187.457031 269.03125 C 187.195312 269.03125 186.941406 269.007812 186.683594 268.957031 C 186.429688 268.90625 186.183594 268.832031 185.941406 268.730469 C 185.703125 268.632812 185.472656 268.511719 185.257812 268.367188 C 185.042969 268.222656 184.84375 268.058594 184.660156 267.875 C 184.476562 267.691406 184.3125 267.488281 184.167969 267.273438 C 184.023438 267.058594 183.898438 266.828125 183.800781 266.589844 C 183.699219 266.347656 183.625 266.101562 183.574219 265.847656 C 183.523438 265.59375 183.5 265.335938 183.5 265.074219 L 183.5 110.257812 C 183.5 109.296875 183.546875 108.335938 183.644531 107.378906 C 183.738281 106.421875 183.882812 105.46875 184.070312 104.527344 C 184.257812 103.582031 184.492188 102.648438 184.773438 101.730469 C 185.050781 100.808594 185.375 99.902344 185.746094 99.015625 C 186.113281 98.125 186.527344 97.257812 186.980469 96.410156 C 187.433594 95.558594 187.929688 94.734375 188.464844 93.9375 C 188.996094 93.136719 189.570312 92.363281 190.179688 91.621094 C 190.792969 90.875 191.4375 90.164062 192.117188 89.484375 C 192.796875 88.804688 193.511719 88.15625 194.253906 87.546875 C 195 86.9375 195.769531 86.363281 196.570312 85.828125 C 197.371094 85.292969 198.195312 84.800781 199.042969 84.347656 C 199.890625 83.890625 200.761719 83.480469 201.648438 83.113281 C 202.539062 82.742188 203.441406 82.417969 204.363281 82.136719 C 205.285156 81.859375 206.214844 81.625 207.160156 81.4375 C 208.105469 81.246094 209.054688 81.105469 210.011719 81.011719 C 210.96875 80.914062 211.929688 80.867188 212.890625 80.867188 L 297.601562 80.867188 C 297.863281 80.867188 298.117188 80.890625 298.375 80.941406 C 298.628906 80.992188 298.875 81.066406 299.117188 81.167969 C 299.355469 81.265625 299.585938 81.386719 299.800781 81.53125 C 300.015625 81.675781 300.214844 81.839844 300.398438 82.023438 C 300.585938 82.207031 300.75 82.40625 300.890625 82.625 C 301.035156 82.839844 301.160156 83.070312 301.257812 83.308594 C 301.359375 83.546875 301.433594 83.796875 301.484375 84.050781 C 301.535156 84.304688 301.558594 84.5625 301.558594 84.824219 L 301.558594 265.074219 C 301.558594 265.335938 301.535156 265.59375 301.484375 265.847656 C 301.433594 266.101562 301.359375 266.347656 301.257812 266.589844 C 301.160156 266.828125 301.035156 267.058594 300.890625 267.273438 C 300.75 267.488281 300.585938 267.691406 300.398438 267.875 C 300.214844 268.058594 300.015625 268.222656 299.800781 268.367188 C 299.585938 268.511719 299.355469 268.632812 299.117188 268.730469 C 298.875 268.832031 298.628906 268.90625 298.375 268.957031 C 298.117188 269.007812 297.863281 269.03125 297.601562 269.03125 Z M 191.414062 261.117188 L 293.644531 261.117188 L 293.644531 88.78125 L 212.890625 88.78125 C 212.1875 88.78125 211.488281 88.816406 210.789062 88.886719 C 210.085938 88.957031 209.394531 89.058594 208.703125 89.199219 C 208.015625 89.335938 207.332031 89.507812 206.660156 89.710938 C 205.988281 89.914062 205.324219 90.152344 204.675781 90.421875 C 204.027344 90.691406 203.390625 90.992188 202.773438 91.324219 C 202.152344 91.65625 201.550781 92.015625 200.964844 92.40625 C 200.382812 92.796875 199.816406 93.21875 199.273438 93.664062 C 198.730469 94.109375 198.210938 94.582031 197.710938 95.078125 C 197.214844 95.574219 196.742188 96.097656 196.296875 96.640625 C 195.851562 97.183594 195.433594 97.746094 195.042969 98.332031 C 194.652344 98.917969 194.289062 99.519531 193.957031 100.136719 C 193.625 100.757812 193.324219 101.394531 193.054688 102.042969 C 192.785156 102.691406 192.550781 103.351562 192.34375 104.027344 C 192.140625 104.699219 191.96875 105.378906 191.832031 106.070312 C 191.695312 106.757812 191.589844 107.453125 191.519531 108.152344 C 191.449219 108.851562 191.414062 109.554688 191.414062 110.257812 Z M 191.414062 261.117188 " fill-opacity="1" fill-rule="nonzero"/></g><path fill="#ffffff" d="M 158.28125 128.238281 L 106.214844 128.238281 C 105.953125 128.238281 105.695312 128.210938 105.441406 128.160156 C 105.1875 128.109375 104.9375 128.035156 104.699219 127.933594 C 104.457031 127.835938 104.230469 127.714844 104.015625 127.570312 C 103.796875 127.425781 103.597656 127.261719 103.414062 127.078125 C 103.230469 126.894531 103.066406 126.695312 102.921875 126.476562 C 102.777344 126.261719 102.65625 126.035156 102.558594 125.792969 C 102.457031 125.554688 102.382812 125.304688 102.332031 125.050781 C 102.28125 124.796875 102.257812 124.539062 102.257812 124.277344 C 102.257812 124.019531 102.28125 123.761719 102.332031 123.507812 C 102.382812 123.25 102.457031 123.003906 102.558594 122.765625 C 102.65625 122.523438 102.777344 122.296875 102.921875 122.078125 C 103.066406 121.863281 103.230469 121.664062 103.414062 121.480469 C 103.597656 121.296875 103.796875 121.132812 104.015625 120.988281 C 104.230469 120.84375 104.457031 120.722656 104.699219 120.621094 C 104.9375 120.523438 105.1875 120.449219 105.441406 120.398438 C 105.695312 120.347656 105.953125 120.320312 106.214844 120.320312 L 158.28125 120.320312 C 158.539062 120.320312 158.796875 120.347656 159.054688 120.398438 C 159.308594 120.449219 159.554688 120.523438 159.796875 120.621094 C 160.035156 120.722656 160.261719 120.84375 160.480469 120.988281 C 160.695312 121.132812 160.894531 121.296875 161.078125 121.480469 C 161.261719 121.664062 161.425781 121.863281 161.570312 122.082031 C 161.714844 122.296875 161.835938 122.523438 161.9375 122.765625 C 162.035156 123.003906 162.113281 123.25 162.164062 123.507812 C 162.214844 123.761719 162.238281 124.019531 162.238281 124.277344 C 162.238281 124.539062 162.214844 124.796875 162.164062 125.050781 C 162.113281 125.304688 162.035156 125.554688 161.9375 125.792969 C 161.835938 126.035156 161.714844 126.261719 161.570312 126.476562 C 161.425781 126.695312 161.261719 126.894531 161.078125 127.078125 C 160.894531 127.261719 160.695312 127.425781 160.480469 127.570312 C 160.261719 127.714844 160.035156 127.835938 159.796875 127.933594 C 159.554688 128.035156 159.308594 128.109375 159.054688 128.160156 C 158.796875 128.210938 158.539062 128.238281 158.28125 128.238281 Z M 158.28125 128.238281 " fill-opacity="1" fill-rule="nonzero"/><path fill="#ffffff" d="M 158.28125 154.957031 L 106.214844 154.957031 C 105.953125 154.957031 105.695312 154.929688 105.441406 154.878906 C 105.1875 154.828125 104.9375 154.753906 104.699219 154.652344 C 104.457031 154.554688 104.230469 154.433594 104.015625 154.289062 C 103.796875 154.144531 103.597656 153.980469 103.414062 153.796875 C 103.230469 153.613281 103.066406 153.414062 102.921875 153.195312 C 102.777344 152.980469 102.65625 152.753906 102.558594 152.511719 C 102.457031 152.273438 102.382812 152.023438 102.332031 151.769531 C 102.28125 151.515625 102.257812 151.257812 102.257812 150.996094 C 102.257812 150.738281 102.28125 150.480469 102.332031 150.226562 C 102.382812 149.96875 102.457031 149.722656 102.558594 149.484375 C 102.65625 149.242188 102.777344 149.015625 102.921875 148.800781 C 103.066406 148.582031 103.230469 148.382812 103.414062 148.199219 C 103.597656 148.015625 103.796875 147.851562 104.015625 147.707031 C 104.230469 147.5625 104.457031 147.441406 104.699219 147.339844 C 104.9375 147.242188 105.1875 147.167969 105.441406 147.117188 C 105.695312 147.066406 105.953125 147.039062 106.214844 147.039062 L 158.28125 147.039062 C 158.539062 147.039062 158.796875 147.066406 159.054688 147.117188 C 159.308594 147.167969 159.554688 147.242188 159.796875 147.339844 C 160.035156 147.441406 160.261719 147.5625 160.480469 147.707031 C 160.695312 147.851562 160.894531 148.015625 161.078125 148.199219 C 161.261719 148.382812 161.425781 148.582031 161.570312 148.800781 C 161.714844 149.015625 161.835938 149.242188 161.9375 149.484375 C 162.035156 149.722656 162.113281 149.96875 162.164062 150.226562 C 162.214844 150.480469 162.238281 150.738281 162.238281 150.996094 C 162.238281 151.257812 162.214844 151.515625 162.164062 151.769531 C 162.113281 152.023438 162.035156 152.273438 161.9375 152.511719 C 161.835938 152.753906 161.714844 152.980469 161.570312 153.195312 C 161.425781 153.414062 161.261719 153.613281 161.078125 153.796875 C 160.894531 153.980469 160.695312 154.144531 160.480469 154.289062 C 160.261719 154.433594 160.035156 154.554688 159.796875 154.652344 C 159.554688 154.753906 159.308594 154.828125 159.054688 154.878906 C 158.796875 154.929688 158.539062 154.957031 158.28125 154.957031 Z M 158.28125 154.957031 " fill-opacity="1" fill-rule="nonzero"/><path fill="#ffffff" d="M 158.28125 181.671875 L 106.214844 181.671875 C 105.953125 181.671875 105.695312 181.648438 105.441406 181.597656 C 105.1875 181.546875 104.9375 181.472656 104.699219 181.371094 C 104.457031 181.273438 104.230469 181.148438 104.015625 181.003906 C 103.796875 180.859375 103.597656 180.695312 103.414062 180.511719 C 103.230469 180.328125 103.066406 180.128906 102.921875 179.914062 C 102.777344 179.699219 102.65625 179.46875 102.558594 179.230469 C 102.457031 178.988281 102.382812 178.742188 102.332031 178.488281 C 102.28125 178.230469 102.257812 177.976562 102.257812 177.714844 C 102.257812 177.457031 102.28125 177.199219 102.332031 176.941406 C 102.382812 176.6875 102.457031 176.441406 102.558594 176.199219 C 102.65625 175.960938 102.777344 175.730469 102.921875 175.515625 C 103.066406 175.300781 103.230469 175.101562 103.414062 174.917969 C 103.597656 174.734375 103.796875 174.570312 104.015625 174.425781 C 104.230469 174.28125 104.457031 174.15625 104.699219 174.058594 C 104.9375 173.960938 105.1875 173.882812 105.441406 173.832031 C 105.695312 173.78125 105.953125 173.757812 106.214844 173.757812 L 158.28125 173.757812 C 158.539062 173.757812 158.796875 173.78125 159.054688 173.832031 C 159.308594 173.882812 159.554688 173.960938 159.796875 174.058594 C 160.035156 174.15625 160.261719 174.28125 160.480469 174.425781 C 160.695312 174.570312 160.894531 174.734375 161.078125 174.917969 C 161.261719 175.101562 161.425781 175.300781 161.570312 175.515625 C 161.714844 175.730469 161.835938 175.960938 161.9375 176.199219 C 162.035156 176.441406 162.113281 176.6875 162.164062 176.941406 C 162.214844 177.199219 162.238281 177.457031 162.238281 177.714844 C 162.238281 177.976562 162.214844 178.230469 162.164062 178.488281 C 162.113281 178.742188 162.035156 178.988281 161.9375 179.230469 C 161.835938 179.46875 161.714844 179.699219 161.570312 179.914062 C 161.425781 180.128906 161.261719 180.328125 161.078125 180.511719 C 160.894531 180.695312 160.695312 180.859375 160.480469 181.003906 C 160.261719 181.148438 160.035156 181.273438 159.796875 181.371094 C 159.554688 181.472656 159.308594 181.546875 159.054688 181.597656 C 158.796875 181.648438 158.539062 181.671875 158.28125 181.671875 Z M 158.28125 181.671875 " fill-opacity="1" fill-rule="nonzero"/><path fill="#ffffff" d="M 158.28125 208.394531 L 106.214844 208.394531 C 105.953125 208.394531 105.695312 208.367188 105.441406 208.316406 C 105.1875 208.265625 104.9375 208.191406 104.699219 208.089844 C 104.457031 207.992188 104.230469 207.871094 104.015625 207.726562 C 103.796875 207.582031 103.597656 207.417969 103.414062 207.234375 C 103.230469 207.050781 103.066406 206.851562 102.921875 206.632812 C 102.777344 206.417969 102.65625 206.191406 102.558594 205.949219 C 102.457031 205.710938 102.382812 205.460938 102.332031 205.207031 C 102.28125 204.953125 102.257812 204.695312 102.257812 204.433594 C 102.257812 204.175781 102.28125 203.917969 102.332031 203.664062 C 102.382812 203.410156 102.457031 203.160156 102.558594 202.921875 C 102.65625 202.679688 102.777344 202.453125 102.921875 202.238281 C 103.066406 202.019531 103.230469 201.820312 103.414062 201.636719 C 103.597656 201.453125 103.796875 201.289062 104.015625 201.144531 C 104.230469 201 104.457031 200.878906 104.699219 200.777344 C 104.9375 200.679688 105.1875 200.605469 105.441406 200.554688 C 105.695312 200.503906 105.953125 200.476562 106.214844 200.476562 L 158.28125 200.476562 C 158.539062 200.476562 158.796875 200.503906 159.054688 200.554688 C 159.308594 200.605469 159.554688 200.679688 159.796875 200.777344 C 160.035156 200.878906 160.261719 201 160.480469 201.144531 C 160.695312 201.289062 160.894531 201.453125 161.078125 201.636719 C 161.261719 201.820312 161.425781 202.019531 161.570312 202.238281 C 161.714844 202.453125 161.835938 202.679688 161.9375 202.921875 C 162.035156 203.160156 162.113281 203.410156 162.164062 203.664062 C 162.214844 203.917969 162.238281 204.175781 162.238281 204.433594 C 162.238281 204.695312 162.214844 204.953125 162.164062 205.207031 C 162.113281 205.460938 162.035156 205.710938 161.9375 205.949219 C 161.835938 206.191406 161.714844 206.417969 161.570312 206.632812 C 161.425781 206.851562 161.261719 207.050781 161.078125 207.234375 C 160.894531 207.417969 160.695312 207.582031 160.480469 207.726562 C 160.261719 207.871094 160.035156 207.992188 159.796875 208.089844 C 159.554688 208.191406 159.308594 208.265625 159.054688 208.316406 C 158.796875 208.367188 158.539062 208.394531 158.28125 208.394531 Z M 158.28125 208.394531 " fill-opacity="1" fill-rule="nonzero"/><path fill="#ffffff" d="M 158.28125 235.113281 L 106.214844 235.113281 C 105.953125 235.113281 105.695312 235.085938 105.441406 235.035156 C 105.1875 234.984375 104.9375 234.910156 104.699219 234.808594 C 104.457031 234.710938 104.230469 234.589844 104.015625 234.445312 C 103.796875 234.300781 103.597656 234.136719 103.414062 233.953125 C 103.230469 233.769531 103.066406 233.570312 102.921875 233.351562 C 102.777344 233.136719 102.65625 232.910156 102.558594 232.667969 C 102.457031 232.429688 102.382812 232.179688 102.332031 231.925781 C 102.28125 231.671875 102.257812 231.414062 102.257812 231.152344 C 102.257812 230.894531 102.28125 230.636719 102.332031 230.382812 C 102.382812 230.128906 102.457031 229.878906 102.558594 229.640625 C 102.65625 229.398438 102.777344 229.171875 102.921875 228.957031 C 103.066406 228.738281 103.230469 228.539062 103.414062 228.355469 C 103.597656 228.171875 103.796875 228.007812 104.015625 227.863281 C 104.230469 227.71875 104.457031 227.597656 104.699219 227.496094 C 104.9375 227.398438 105.1875 227.324219 105.441406 227.273438 C 105.695312 227.222656 105.953125 227.195312 106.214844 227.195312 L 158.28125 227.195312 C 158.539062 227.195312 158.796875 227.222656 159.054688 227.273438 C 159.308594 227.324219 159.554688 227.398438 159.796875 227.496094 C 160.035156 227.597656 160.261719 227.71875 160.480469 227.863281 C 160.695312 228.007812 160.894531 228.171875 161.078125 228.355469 C 161.261719 228.539062 161.425781 228.738281 161.570312 228.957031 C 161.714844 229.171875 161.835938 229.398438 161.9375 229.640625 C 162.035156 229.878906 162.113281 230.128906 162.164062 230.382812 C 162.214844 230.636719 162.238281 230.894531 162.238281 231.152344 C 162.238281 231.414062 162.214844 231.671875 162.164062 231.925781 C 162.113281 232.179688 162.035156 232.429688 161.9375 232.667969 C 161.835938 232.910156 161.714844 233.136719 161.570312 233.351562 C 161.425781 233.570312 161.261719 233.769531 161.078125 233.953125 C 160.894531 234.136719 160.695312 234.300781 160.480469 234.445312 C 160.261719 234.589844 160.035156 234.710938 159.796875 234.808594 C 159.554688 234.910156 159.308594 234.984375 159.054688 235.035156 C 158.796875 235.085938 158.539062 235.113281 158.28125 235.113281 Z M 158.28125 235.113281 " fill-opacity="1" fill-rule="nonzero"/><path fill="#ffffff" d="M 268.5625 128.238281 L 216.496094 128.238281 C 216.234375 128.238281 215.976562 128.210938 215.722656 128.160156 C 215.46875 128.109375 215.21875 128.035156 214.980469 127.933594 C 214.742188 127.835938 214.511719 127.714844 214.296875 127.570312 C 214.082031 127.425781 213.878906 127.261719 213.695312 127.078125 C 213.511719 126.894531 213.347656 126.695312 213.203125 126.476562 C 213.058594 126.261719 212.9375 126.035156 212.839844 125.792969 C 212.738281 125.554688 212.664062 125.304688 212.613281 125.050781 C 212.5625 124.796875 212.539062 124.539062 212.539062 124.277344 C 212.539062 124.019531 212.5625 123.761719 212.613281 123.507812 C 212.664062 123.25 212.738281 123.003906 212.839844 122.765625 C 212.9375 122.523438 213.058594 122.296875 213.203125 122.078125 C 213.347656 121.863281 213.511719 121.664062 213.695312 121.480469 C 213.878906 121.296875 214.082031 121.132812 214.296875 120.988281 C 214.511719 120.84375 214.742188 120.722656 214.980469 120.621094 C 215.21875 120.523438 215.46875 120.449219 215.722656 120.398438 C 215.976562 120.347656 216.234375 120.320312 216.496094 120.320312 L 268.5625 120.320312 C 268.824219 120.320312 269.078125 120.347656 269.335938 120.398438 C 269.589844 120.449219 269.835938 120.523438 270.078125 120.621094 C 270.316406 120.722656 270.546875 120.84375 270.761719 120.988281 C 270.976562 121.132812 271.175781 121.296875 271.359375 121.480469 C 271.542969 121.664062 271.707031 121.863281 271.851562 122.082031 C 271.996094 122.296875 272.121094 122.523438 272.21875 122.765625 C 272.316406 123.003906 272.394531 123.25 272.445312 123.507812 C 272.496094 123.761719 272.519531 124.019531 272.519531 124.277344 C 272.519531 124.539062 272.496094 124.796875 272.445312 125.050781 C 272.394531 125.304688 272.316406 125.554688 272.21875 125.792969 C 272.121094 126.035156 271.996094 126.261719 271.851562 126.476562 C 271.707031 126.695312 271.542969 126.894531 271.359375 127.078125 C 271.175781 127.261719 270.976562 127.425781 270.761719 127.570312 C 270.546875 127.714844 270.316406 127.835938 270.078125 127.933594 C 269.835938 128.035156 269.589844 128.109375 269.335938 128.160156 C 269.078125 128.210938 268.824219 128.238281 268.5625 128.238281 Z M 268.5625 128.238281 " fill-opacity="1" fill-rule="nonzero"/><path fill="#ffffff" d="M 268.5625 154.957031 L 216.496094 154.957031 C 216.234375 154.957031 215.976562 154.929688 215.722656 154.878906 C 215.46875 154.828125 215.21875 154.753906 214.980469 154.652344 C 214.742188 154.554688 214.511719 154.433594 214.296875 154.289062 C 214.082031 154.144531 213.878906 153.980469 213.695312 153.796875 C 213.511719 153.613281 213.347656 153.414062 213.203125 153.195312 C 213.058594 152.980469 212.9375 152.753906 212.839844 152.511719 C 212.738281 152.273438 212.664062 152.023438 212.613281 151.769531 C 212.5625 151.515625 212.539062 151.257812 212.539062 150.996094 C 212.539062 150.738281 212.5625 150.480469 212.613281 150.226562 C 212.664062 149.96875 212.738281 149.722656 212.839844 149.484375 C 212.9375 149.242188 213.058594 149.015625 213.203125 148.800781 C 213.347656 148.582031 213.511719 148.382812 213.695312 148.199219 C 213.878906 148.015625 214.082031 147.851562 214.296875 147.707031 C 214.511719 147.5625 214.742188 147.441406 214.980469 147.339844 C 215.21875 147.242188 215.46875 147.167969 215.722656 147.117188 C 215.976562 147.066406 216.234375 147.039062 216.496094 147.039062 L 268.5625 147.039062 C 268.824219 147.039062 269.078125 147.066406 269.335938 147.117188 C 269.589844 147.167969 269.835938 147.242188 270.078125 147.339844 C 270.316406 147.441406 270.546875 147.5625 270.761719 147.707031 C 270.976562 147.851562 271.175781 148.015625 271.359375 148.199219 C 271.542969 148.382812 271.707031 148.582031 271.851562 148.800781 C 271.996094 149.015625 272.121094 149.242188 272.21875 149.484375 C 272.316406 149.722656 272.394531 149.96875 272.445312 150.226562 C 272.496094 150.480469 272.519531 150.738281 272.519531 150.996094 C 272.519531 151.257812 272.496094 151.515625 272.445312 151.769531 C 272.394531 152.023438 272.316406 152.273438 272.21875 152.511719 C 272.121094 152.753906 271.996094 152.980469 271.851562 153.195312 C 271.707031 153.414062 271.542969 153.613281 271.359375 153.796875 C 271.175781 153.980469 270.976562 154.144531 270.761719 154.289062 C 270.546875 154.433594 270.316406 154.554688 270.078125 154.652344 C 269.835938 154.753906 269.589844 154.828125 269.335938 154.878906 C 269.078125 154.929688 268.824219 154.957031 268.5625 154.957031 Z M 268.5625 154.957031 " fill-opacity="1" fill-rule="nonzero"/><path fill="#ffffff" d="M 268.5625 181.671875 L 216.496094 181.671875 C 216.234375 181.671875 215.976562 181.648438 215.722656 181.597656 C 215.46875 181.546875 215.21875 181.472656 214.980469 181.371094 C 214.742188 181.273438 214.511719 181.148438 214.296875 181.003906 C 214.082031 180.859375 213.878906 180.695312 213.695312 180.511719 C 213.511719 180.328125 213.347656 180.128906 213.203125 179.914062 C 213.058594 179.699219 212.9375 179.46875 212.839844 179.230469 C 212.738281 178.988281 212.664062 178.742188 212.613281 178.488281 C 212.5625 178.230469 212.539062 177.976562 212.539062 177.714844 C 212.539062 177.457031 212.5625 177.199219 212.613281 176.941406 C 212.664062 176.6875 212.738281 176.441406 212.839844 176.199219 C 212.9375 175.960938 213.058594 175.730469 213.203125 175.515625 C 213.347656 175.300781 213.511719 175.101562 213.695312 174.917969 C 213.878906 174.734375 214.082031 174.570312 214.296875 174.425781 C 214.511719 174.28125 214.742188 174.15625 214.980469 174.058594 C 215.21875 173.960938 215.46875 173.882812 215.722656 173.832031 C 215.976562 173.78125 216.234375 173.757812 216.496094 173.757812 L 268.5625 173.757812 C 268.824219 173.757812 269.078125 173.78125 269.335938 173.832031 C 269.589844 173.882812 269.835938 173.960938 270.078125 174.058594 C 270.316406 174.15625 270.546875 174.28125 270.761719 174.425781 C 270.976562 174.570312 271.175781 174.734375 271.359375 174.917969 C 271.542969 175.101562 271.707031 175.300781 271.851562 175.515625 C 271.996094 175.730469 272.121094 175.960938 272.21875 176.199219 C 272.316406 176.441406 272.394531 176.6875 272.445312 176.941406 C 272.496094 177.199219 272.519531 177.457031 272.519531 177.714844 C 272.519531 177.976562 272.496094 178.230469 272.445312 178.488281 C 272.394531 178.742188 272.316406 178.988281 272.21875 179.230469 C 272.121094 179.46875 271.996094 179.699219 271.851562 179.914062 C 271.707031 180.128906 271.542969 180.328125 271.359375 180.511719 C 271.175781 180.695312 270.976562 180.859375 270.761719 181.003906 C 270.546875 181.148438 270.316406 181.273438 270.078125 181.371094 C 269.835938 181.472656 269.589844 181.546875 269.335938 181.597656 C 269.078125 181.648438 268.824219 181.671875 268.5625 181.671875 Z M 268.5625 181.671875 " fill-opacity="1" fill-rule="nonzero"/><path fill="#ffffff" d="M 268.5625 208.394531 L 216.496094 208.394531 C 216.234375 208.394531 215.976562 208.367188 215.722656 208.316406 C 215.46875 208.265625 215.21875 208.191406 214.980469 208.089844 C 214.742188 207.992188 214.511719 207.871094 214.296875 207.726562 C 214.082031 207.582031 213.878906 207.417969 213.695312 207.234375 C 213.511719 207.050781 213.347656 206.851562 213.203125 206.632812 C 213.058594 206.417969 212.9375 206.191406 212.839844 205.949219 C 212.738281 205.710938 212.664062 205.460938 212.613281 205.207031 C 212.5625 204.953125 212.539062 204.695312 212.539062 204.433594 C 212.539062 204.175781 212.5625 203.917969 212.613281 203.664062 C 212.664062 203.410156 212.738281 203.160156 212.839844 202.921875 C 212.9375 202.679688 213.058594 202.453125 213.203125 202.238281 C 213.347656 202.019531 213.511719 201.820312 213.695312 201.636719 C 213.878906 201.453125 214.082031 201.289062 214.296875 201.144531 C 214.511719 201 214.742188 200.878906 214.980469 200.777344 C 215.21875 200.679688 215.46875 200.605469 215.722656 200.554688 C 215.976562 200.503906 216.234375 200.476562 216.496094 200.476562 L 268.5625 200.476562 C 268.824219 200.476562 269.078125 200.503906 269.335938 200.554688 C 269.589844 200.605469 269.835938 200.679688 270.078125 200.777344 C 270.316406 200.878906 270.546875 201 270.761719 201.144531 C 270.976562 201.289062 271.175781 201.453125 271.359375 201.636719 C 271.542969 201.820312 271.707031 202.019531 271.851562 202.238281 C 271.996094 202.453125 272.121094 202.679688 272.21875 202.921875 C 272.316406 203.160156 272.394531 203.410156 272.445312 203.664062 C 272.496094 203.917969 272.519531 204.175781 272.519531 204.433594 C 272.519531 204.695312 272.496094 204.953125 272.445312 205.207031 C 272.394531 205.460938 272.316406 205.710938 272.21875 205.949219 C 272.121094 206.191406 271.996094 206.417969 271.851562 206.632812 C 271.707031 206.851562 271.542969 207.050781 271.359375 207.234375 C 271.175781 207.417969 270.976562 207.582031 270.761719 207.726562 C 270.546875 207.871094 270.316406 207.992188 270.078125 208.089844 C 269.835938 208.191406 269.589844 208.265625 269.335938 208.316406 C 269.078125 208.367188 268.824219 208.394531 268.5625 208.394531 Z M 268.5625 208.394531 " fill-opacity="1" fill-rule="nonzero"/><path fill="#ffffff" d="M 268.5625 235.113281 L 216.496094 235.113281 C 216.234375 235.113281 215.976562 235.085938 215.722656 235.035156 C 215.46875 234.984375 215.21875 234.910156 214.980469 234.808594 C 214.742188 234.710938 214.511719 234.589844 214.296875 234.445312 C 214.082031 234.300781 213.878906 234.136719 213.695312 233.953125 C 213.511719 233.769531 213.347656 233.570312 213.203125 233.351562 C 213.058594 233.136719 212.9375 232.910156 212.839844 232.667969 C 212.738281 232.429688 212.664062 232.179688 212.613281 231.925781 C 212.5625 231.671875 212.539062 231.414062 212.539062 231.152344 C 212.539062 230.894531 212.5625 230.636719 212.613281 230.382812 C 212.664062 230.128906 212.738281 229.878906 212.839844 229.640625 C 212.9375 229.398438 213.058594 229.171875 213.203125 228.957031 C 213.347656 228.738281 213.511719 228.539062 213.695312 228.355469 C 213.878906 228.171875 214.082031 228.007812 214.296875 227.863281 C 214.511719 227.71875 214.742188 227.597656 214.980469 227.496094 C 215.21875 227.398438 215.46875 227.324219 215.722656 227.273438 C 215.976562 227.222656 216.234375 227.195312 216.496094 227.195312 L 268.5625 227.195312 C 268.824219 227.195312 269.078125 227.222656 269.335938 227.273438 C 269.589844 227.324219 269.835938 227.398438 270.078125 227.496094 C 270.316406 227.597656 270.546875 227.71875 270.761719 227.863281 C 270.976562 228.007812 271.175781 228.171875 271.359375 228.355469 C 271.542969 228.539062 271.707031 228.738281 271.851562 228.957031 C 271.996094 229.171875 272.121094 229.398438 272.21875 229.640625 C 272.316406 229.878906 272.394531 230.128906 272.445312 230.382812 C 272.496094 230.636719 272.519531 230.894531 272.519531 231.152344 C 272.519531 231.414062 272.496094 231.671875 272.445312 231.925781 C 272.394531 232.179688 272.316406 232.429688 272.21875 232.667969 C 272.121094 232.910156 271.996094 233.136719 271.851562 233.351562 C 271.707031 233.570312 271.542969 233.769531 271.359375 233.953125 C 271.175781 234.136719 270.976562 234.300781 270.761719 234.445312 C 270.546875 234.589844 270.316406 234.710938 270.078125 234.808594 C 269.835938 234.910156 269.589844 234.984375 269.335938 235.035156 C 269.078125 235.085938 268.824219 235.113281 268.5625 235.113281 Z M 268.5625 235.113281 " fill-opacity="1" fill-rule="nonzero"/><g clip-path="url(#0c9b283eb0)"><path fill="#ffde59" d="M 250.90625 141.050781 C 250.664062 141.289062 250.386719 141.492188 250.085938 141.648438 L 210.601562 162.234375 C 209.308594 162.910156 207.730469 162.667969 206.695312 161.636719 C 206.058594 160.996094 205.714844 160.140625 205.714844 159.273438 C 205.714844 158.75 205.832031 158.214844 206.097656 157.726562 L 226.6875 118.25 C 226.839844 117.949219 227.046875 117.679688 227.285156 117.433594 L 232.808594 111.910156 L 256.421875 135.527344 Z M 250.90625 141.050781 " fill-opacity="1" fill-rule="nonzero"/></g><path fill="#ffde59" d="M 343.550781 24.789062 C 349.871094 31.097656 348.65625 43.320312 340.992188 50.972656 L 332.015625 59.957031 L 339.101562 67.042969 C 339.726562 67.667969 340.078125 68.511719 340.078125 69.402344 C 340.078125 70.289062 339.730469 71.136719 339.101562 71.757812 L 298.941406 111.917969 C 297.636719 113.21875 295.519531 113.21875 294.21875 111.917969 C 293.566406 111.265625 293.234375 110.410156 293.234375 109.554688 C 293.234375 108.699219 293.566406 107.84375 294.21875 107.199219 L 332.007812 69.410156 L 327.277344 64.679688 L 261.140625 130.820312 L 237.527344 107.203125 L 303.65625 41.058594 C 302.351562 39.753906 302.351562 38.257812 303.65625 36.949219 C 304.960938 35.640625 307.070312 37.566406 308.375 37.566406 L 308.386719 37.566406 L 317.371094 27.976562 C 325.300781 20.039062 337.027344 18.273438 343.550781 24.789062 Z M 343.550781 24.789062 " fill-opacity="1" fill-rule="nonzero"/></svg>